<svg width="45px" height="45px" viewBox="0 0 2729 2729" version="1.1" xmlns="http://www.w3.org/2000/svg" xmlns:xlink="http://www.w3.org/1999/xlink" xml:space="preserve" xmlns:serif="http://www.serif.com/" style="fill-rule:evenodd;clip-rule:evenodd;stroke-linejoin:round;stroke-miterlimit:2;">
          <g transform="matrix(1,0,0,1,-59568,-6771)">
              <g id="Logo" transform="matrix(1,0,0,1,-0.5475,-0.325)">
                  <g clip-path="url(#_clip1)">
                      <g transform="matrix(4.16667,0,0,4.16667,60895,7858.64)">
                          <path d="M0,133.126L-219.284,133.126C-223.702,133.126 -227.284,129.545 -227.284,125.126L-227.284,40.49C-227.284,36.072 -223.702,32.49 -219.284,32.49L0,32.49C4.418,32.49 8,36.072 8,40.49L8,125.126C8,129.545 4.418,133.126 0,133.126M240.879,-58.172L-219.284,-58.172C-223.702,-58.172 -227.284,-61.753 -227.284,-66.172L-227.284,-162.216C-227.284,-166.634 -223.702,-170.216 -219.284,-170.216L-67.282,-170.216C-62.863,-170.216 -59.282,-166.634 -59.282,-162.216L-59.282,-148.936C-59.282,-144.518 -55.7,-140.936 -51.282,-140.936L-5.767,-140.936C-1.348,-140.936 2.233,-144.518 2.233,-148.936L2.233,-223.138C2.233,-223.586 2.202,-224.025 2.147,-224.459C2.099,-224.843 2.062,-225.228 2.062,-225.615L2.062,-252.878C2.062,-257.296 -1.52,-260.878 -5.938,-260.878L-310.228,-260.878C-314.646,-260.878 -318.228,-257.296 -318.228,-252.878L-318.228,215.788C-318.228,220.206 -314.646,223.788 -310.228,223.788L0,223.788C4.418,223.788 8,227.37 8,231.788L8,324.488C8,328.906 4.418,332.488 0,332.488L-20.946,332.488C-25.364,332.488 -28.946,336.069 -28.946,340.488L-28.946,386.004C-28.946,390.422 -25.364,394.004 -20.946,394.004L127.89,394.004C132.308,394.004 135.89,390.422 135.89,386.004L135.89,340.488C135.89,336.069 132.308,332.488 127.89,332.488L106.944,332.488C102.526,332.488 98.944,328.906 98.944,324.488L98.944,40.49C98.944,36.072 102.526,32.49 106.944,32.49L167.623,32.49C172.042,32.49 175.623,36.072 175.623,40.49L175.623,147.422C175.623,151.841 179.205,155.422 183.623,155.422L240.879,155.422C245.298,155.422 248.879,151.841 248.879,147.422L248.879,-50.172C248.879,-54.59 245.298,-58.172 240.879,-58.172" style="fill:rgba(52, 211, 153);fill-rule:nonzero; "></path>
                      </g>
                  </g>
              </g>
          </g>
      </svg>