<?xml version="1.0" encoding="UTF-8" standalone="no"?>
<!DOCTYPE svg PUBLIC "-//W3C//DTD SVG 1.1//EN" "http://www.w3.org/Graphics/SVG/1.1/DTD/svg11.dtd">
<svg width="100%" height="100%" viewBox="0 0 8432 2729" version="1.1" xmlns="http://www.w3.org/2000/svg" xmlns:xlink="http://www.w3.org/1999/xlink" xml:space="preserve" xmlns:serif="http://www.serif.com/" style="fill-rule:evenodd;clip-rule:evenodd;stroke-linejoin:round;stroke-miterlimit:2;">
    <g transform="matrix(1,0,0,1,-59568,-6771)">
        <g id="Logo" transform="matrix(1,0,0,1,-0.5475,-0.325)">
            <rect x="59568.5" y="6771.32" width="8431.45" height="2728.68" style="fill:none;"/>
            <clipPath id="_clip1">
                <rect x="59568.5" y="6771.32" width="8431.45" height="2728.68"/>
            </clipPath>
            <g clip-path="url(#_clip1)">
                <g transform="matrix(4.16667,0,0,4.16667,60895,7858.64)">
                    <path d="M0,133.126L-219.284,133.126C-223.702,133.126 -227.284,129.545 -227.284,125.126L-227.284,40.49C-227.284,36.072 -223.702,32.49 -219.284,32.49L0,32.49C4.418,32.49 8,36.072 8,40.49L8,125.126C8,129.545 4.418,133.126 0,133.126M240.879,-58.172L-219.284,-58.172C-223.702,-58.172 -227.284,-61.753 -227.284,-66.172L-227.284,-162.216C-227.284,-166.634 -223.702,-170.216 -219.284,-170.216L-67.282,-170.216C-62.863,-170.216 -59.282,-166.634 -59.282,-162.216L-59.282,-148.936C-59.282,-144.518 -55.7,-140.936 -51.282,-140.936L-5.767,-140.936C-1.348,-140.936 2.233,-144.518 2.233,-148.936L2.233,-223.138C2.233,-223.586 2.202,-224.025 2.147,-224.459C2.099,-224.843 2.062,-225.228 2.062,-225.615L2.062,-252.878C2.062,-257.296 -1.52,-260.878 -5.938,-260.878L-310.228,-260.878C-314.646,-260.878 -318.228,-257.296 -318.228,-252.878L-318.228,215.788C-318.228,220.206 -314.646,223.788 -310.228,223.788L0,223.788C4.418,223.788 8,227.37 8,231.788L8,324.488C8,328.906 4.418,332.488 0,332.488L-20.946,332.488C-25.364,332.488 -28.946,336.069 -28.946,340.488L-28.946,386.004C-28.946,390.422 -25.364,394.004 -20.946,394.004L127.89,394.004C132.308,394.004 135.89,390.422 135.89,386.004L135.89,340.488C135.89,336.069 132.308,332.488 127.89,332.488L106.944,332.488C102.526,332.488 98.944,328.906 98.944,324.488L98.944,40.49C98.944,36.072 102.526,32.49 106.944,32.49L167.623,32.49C172.042,32.49 175.623,36.072 175.623,40.49L175.623,147.422C175.623,151.841 179.205,155.422 183.623,155.422L240.879,155.422C245.298,155.422 248.879,151.841 248.879,147.422L248.879,-50.172C248.879,-54.59 245.298,-58.172 240.879,-58.172" style="fill:rgb(27,20,24);fill-rule:nonzero;"/>
                </g>
                <g transform="matrix(4.16667,0,0,4.16667,66196.8,7378.73)">
                    <path d="M0,-0.001C0,12.59 1.912,24.77 5.747,36.532C9.576,48.302 15.118,58.769 22.372,67.935C29.619,77.106 38.515,84.353 49.053,89.69C59.585,95.026 71.559,97.694 84.971,97.694C98.65,97.694 110.831,94.892 121.504,89.279C132.177,83.674 141.065,76.145 148.186,66.702C155.298,57.262 160.704,46.73 164.399,35.096C168.094,23.468 169.94,11.769 169.94,-0.001C169.94,-12.585 167.952,-24.694 163.988,-36.329C160.019,-47.957 154.406,-58.354 147.158,-67.525C139.904,-76.69 131.009,-83.944 120.478,-89.281C109.939,-94.617 98.105,-97.286 84.971,-97.286C71.014,-97.286 58.764,-94.477 48.232,-88.871C37.694,-83.259 28.869,-75.799 21.756,-66.499C14.637,-57.192 9.236,-46.796 5.542,-35.302C1.848,-23.809 0,-12.039 0,-0.001M84.56,147.773C63.215,147.773 43.852,143.669 26.477,135.459C9.095,127.249 -5.817,116.103 -18.267,102.004C-30.722,87.913 -40.368,72.039 -47.205,54.389C-54.049,36.737 -57.468,18.612 -57.468,-0.001C-57.468,-19.428 -53.844,-37.97 -46.59,-55.621C-39.342,-73.272 -29.35,-89.005 -16.625,-102.827C-3.899,-116.643 11.147,-127.591 28.529,-135.666C45.904,-143.734 64.991,-147.774 85.792,-147.774C106.86,-147.774 126.083,-143.529 143.465,-135.05C160.84,-126.564 175.687,-115.206 188.002,-100.98C200.316,-86.748 209.893,-70.874 216.736,-53.364C223.573,-35.848 226.998,-17.786 226.998,0.82C226.998,19.978 223.438,38.38 216.325,56.03C209.206,73.682 199.29,89.421 186.565,103.236C173.84,117.058 158.787,127.936 141.412,135.869C124.03,143.811 105.085,147.773 84.56,147.773" style="fill:rgb(27,20,24);fill-rule:nonzero;"/>
                </g>
                <g transform="matrix(4.16667,0,0,4.16667,64407.4,7994.45)">
                    <path d="M40.445,-293.496L-72.689,-293.496C-74.898,-293.496 -76.689,-291.705 -76.689,-289.496L-76.689,-251.496C-76.689,-249.287 -74.898,-247.496 -72.689,-247.496L-48.24,-247.496C-46.031,-247.496 -44.24,-245.705 -44.24,-243.496L-44.24,-144.9C-44.24,-133.132 -45.472,-121.567 -47.935,-110.215C-50.397,-98.855 -54.298,-88.665 -59.634,-79.634C-64.97,-70.603 -72.224,-63.42 -81.39,-58.083C-90.561,-52.747 -101.983,-50.079 -115.664,-50.079C-129.076,-50.079 -140.293,-52.677 -149.324,-57.878C-158.355,-63.073 -165.609,-70.193 -171.08,-79.223C-176.557,-88.254 -180.457,-98.445 -182.779,-109.805C-185.107,-121.156 -186.268,-132.855 -186.268,-144.9L-186.268,-243.496C-186.268,-245.705 -184.477,-247.496 -182.268,-247.496L-158.831,-247.496C-156.622,-247.496 -154.831,-249.287 -154.831,-251.496L-154.831,-289.496C-154.831,-291.705 -156.622,-293.496 -158.831,-293.496L-271.966,-293.496C-274.175,-293.496 -275.966,-291.705 -275.966,-289.496L-275.966,-251.496C-275.966,-249.287 -274.175,-247.496 -271.966,-247.496L-246.915,-247.496C-244.706,-247.496 -242.915,-245.705 -242.915,-243.496L-242.915,-144.9C-242.915,-126.018 -240.593,-107.887 -235.937,-90.512C-231.287,-73.13 -223.968,-57.602 -213.976,-43.922C-203.989,-30.235 -190.854,-19.498 -174.569,-11.698C-158.291,-3.899 -138.518,0 -115.254,0C-92.818,0 -73.525,-3.758 -57.376,-11.288C-41.232,-18.811 -28.026,-29.208 -17.764,-42.485C-7.502,-55.755 0.021,-71.148 4.812,-88.665C9.597,-106.174 11.996,-124.922 11.996,-144.9L11.996,-243.496C11.996,-245.705 13.787,-247.496 15.996,-247.496L40.445,-247.496C42.654,-247.496 44.445,-249.287 44.445,-251.496L44.445,-289.496C44.445,-291.705 42.654,-293.496 40.445,-293.496Z" style="fill:rgb(27,20,24);fill-rule:nonzero;"/>
                </g>
                <g transform="matrix(4.16667,0,0,4.16667,64627,9488.94)">
                    <path d="M17.138,-291.444L-73.111,-291.444C-75.32,-291.444 -77.111,-289.653 -77.111,-287.444L-77.111,-249.59C-77.111,-247.381 -75.32,-245.59 -73.111,-245.59L-71.824,-245.59C-68.806,-245.59 -66.875,-242.374 -68.295,-239.71L-103.113,-174.376C-107.646,-165.87 -119.852,-165.913 -124.325,-174.45L-158.53,-239.734C-159.926,-242.397 -157.994,-245.59 -154.987,-245.59L-153.643,-245.59C-151.433,-245.59 -149.643,-247.381 -149.643,-249.59L-149.643,-287.444C-149.643,-289.653 -151.433,-291.444 -153.643,-291.444L-243.892,-291.444C-246.101,-291.444 -247.892,-289.653 -247.892,-287.444L-247.892,-249.59C-247.892,-247.381 -246.101,-245.59 -243.892,-245.59L-223.926,-245.59C-222.477,-245.59 -221.141,-244.806 -220.434,-243.542L-142.21,-103.53C-141.877,-102.933 -141.702,-102.262 -141.702,-101.579L-141.702,-49.853C-141.702,-47.644 -143.493,-45.853 -145.702,-45.853L-158.502,-45.853C-160.711,-45.853 -162.502,-44.062 -162.502,-41.853L-162.502,-4C-162.502,-1.791 -160.711,0 -158.502,0L-68.252,0C-66.043,0 -64.252,-1.791 -64.252,-4L-64.252,-41.853C-64.252,-44.062 -66.043,-45.853 -68.252,-45.853L-81.467,-45.853C-83.676,-45.853 -85.467,-47.644 -85.467,-49.853L-85.467,-98.677C-85.467,-100.725 -84.942,-102.739 -83.944,-104.527L-6.312,-243.541C-5.605,-244.806 -4.27,-245.59 -2.82,-245.59L17.138,-245.59C19.348,-245.59 21.138,-247.381 21.138,-249.59L21.138,-287.444C21.138,-289.653 19.348,-291.444 17.138,-291.444Z" style="fill:rgb(27,20,24);fill-rule:nonzero;"/>
                </g>
                <g transform="matrix(4.16667,0,0,4.16667,65472.7,8981.82)">
                    <path d="M0,-48.026C-3.284,-40.772 -7.664,-35.23 -13.136,-31.401C-18.613,-27.566 -24.771,-25.654 -31.607,-25.654L-93.285,-25.654C-95.494,-25.654 -97.285,-27.445 -97.285,-29.654L-97.285,-116.066C-97.285,-118.275 -95.494,-120.066 -93.285,-120.066L-34.07,-120.066C-27.233,-120.066 -20.87,-118.283 -14.983,-114.73C-9.102,-111.17 -4.311,-105.834 -0.616,-98.721C3.078,-91.602 4.926,-82.982 4.926,-72.86C4.926,-63.554 3.283,-55.274 0,-48.026M55.415,-108.162C50.759,-119.656 44.262,-130.052 35.917,-139.359C27.566,-148.659 17.785,-156.047 6.567,-161.525C-4.656,-166.996 -16.972,-169.735 -30.376,-169.735L-149.932,-169.735C-152.141,-169.735 -153.932,-167.944 -153.932,-165.735L-153.932,71.856C-153.932,74.065 -155.722,75.856 -157.932,75.856L-170.944,75.856C-173.153,75.856 -174.944,77.647 -174.944,79.856L-174.944,117.709C-174.944,119.918 -173.153,121.709 -170.944,121.709L-80.082,121.709C-77.873,121.709 -76.082,119.918 -76.082,117.709L-76.082,79.856C-76.082,77.647 -77.873,75.856 -80.082,75.856L-93.285,75.856C-95.494,75.856 -97.285,74.065 -97.285,71.856L-97.285,28.014C-97.285,25.804 -95.494,24.014 -93.285,24.014L-28.323,24.014C-9.992,24.014 5.882,19.364 19.293,10.058C32.697,0.757 43.235,-11.288 50.899,-26.065C58.559,-40.842 62.394,-56.441 62.394,-72.86C62.394,-84.899 60.065,-96.669 55.415,-108.162" style="fill:rgb(27,20,24);fill-rule:nonzero;"/>
                </g>
                <g transform="matrix(4.16667,0,0,4.16667,63108.3,7061.95)">
                    <path d="M0,152.053L-37.853,152.053C-40.062,152.053 -41.853,153.844 -41.853,156.053L-41.853,168.08C-41.853,170.289 -43.644,172.08 -45.853,172.08L-137.722,172.08C-139.931,172.08 -141.722,170.289 -141.722,168.08L-141.722,100.141C-141.722,97.931 -139.931,96.141 -137.722,96.141L-68.886,96.141C-66.677,96.141 -64.886,97.931 -64.886,100.141L-64.886,118.311C-64.886,120.52 -63.095,122.311 -60.886,122.311L-22.929,122.311C-20.72,122.311 -18.929,120.52 -18.929,118.311L-18.929,28.013C-18.929,25.803 -20.72,24.013 -22.929,24.013L-60.886,24.013C-63.095,24.013 -64.886,25.803 -64.886,28.013L-64.886,46.166C-64.886,48.375 -66.677,50.166 -68.886,50.166L-137.722,50.166C-139.931,50.166 -141.722,48.375 -141.722,46.166L-141.722,-16.026C-141.722,-18.235 -139.931,-20.026 -137.722,-20.026L-49.427,-20.026C-47.218,-20.026 -45.427,-18.235 -45.427,-16.026L-45.427,-4C-45.427,-1.791 -43.636,0 -41.427,0L-3.574,0C-1.365,0 0.426,-1.791 0.426,-4L0.426,-65.695C0.426,-67.904 -1.365,-69.695 -3.574,-69.695L-194.369,-69.695C-196.578,-69.695 -198.369,-67.904 -198.369,-65.695L-198.369,217.748C-198.369,219.957 -196.578,221.748 -194.369,221.748L0,221.748C2.209,221.748 4,219.957 4,217.748L4,156.053C4,153.844 2.209,152.053 0,152.053" style="fill:rgb(27,20,24);fill-rule:nonzero;"/>
                </g>
                <g transform="matrix(4.16667,0,0,4.16667,63381.6,9488.94)">
                    <path d="M0,-291.444L-259.303,-291.444C-261.512,-291.444 -263.303,-289.653 -263.303,-287.444L-263.303,-149.722C-263.303,-147.513 -261.512,-145.722 -259.303,-145.722L-221.749,-145.722C-219.539,-145.722 -217.749,-147.513 -217.749,-149.722L-217.749,-237.775C-217.749,-239.985 -215.958,-241.775 -213.749,-241.775L-161.77,-241.775C-159.561,-241.775 -157.77,-239.985 -157.77,-237.775L-157.77,-49.853C-157.77,-47.644 -159.561,-45.853 -161.77,-45.853L-184.408,-45.853C-186.617,-45.853 -188.408,-44.062 -188.408,-41.853L-188.408,-4C-188.408,-1.791 -186.617,0 -184.408,0L-74.895,0C-72.686,0 -70.895,-1.791 -70.895,-4L-70.895,-41.853C-70.895,-44.062 -72.686,-45.853 -74.895,-45.853L-97.533,-45.853C-99.742,-45.853 -101.533,-47.644 -101.533,-49.853L-101.533,-237.775C-101.533,-239.985 -99.742,-241.775 -97.533,-241.775L-45.555,-241.775C-43.346,-241.775 -41.555,-239.985 -41.555,-237.775L-41.555,-152.382C-41.555,-150.173 -39.764,-148.382 -37.555,-148.382L0,-148.382C2.209,-148.382 4,-150.173 4,-152.382L4,-287.444C4,-289.653 2.209,-291.444 0,-291.444" style="fill:rgb(27,20,24);fill-rule:nonzero;"/>
                </g>
                <g transform="matrix(4.16667,0,0,4.16667,65329.6,7385.56)">
                    <path d="M0,-3.283L-67.014,-3.283C-69.223,-3.283 -71.014,-5.074 -71.014,-7.283L-71.014,-93.694C-71.014,-95.903 -69.223,-97.694 -67.014,-97.694L-2.463,-97.694C4.374,-97.694 10.737,-95.642 16.625,-91.537C22.506,-87.432 27.361,-81.891 31.197,-74.912C35.026,-67.934 36.944,-59.789 36.944,-50.488C36.944,-41.727 35.302,-33.794 32.018,-26.68C28.734,-19.561 24.354,-13.886 18.882,-9.645C13.405,-5.399 7.113,-3.283 0,-3.283M110.422,98.228L82.389,98.228C80.99,98.228 79.693,97.497 78.969,96.302L43.771,38.291C42.55,36.279 43.333,33.674 45.44,32.626C54.462,28.14 62.436,22.191 69.372,14.779C77.306,6.299 83.393,-3.623 87.639,-14.981C91.878,-26.335 94.001,-38.175 94.001,-50.488C94.001,-62.527 91.743,-74.297 87.228,-85.79C82.713,-97.284 76.279,-107.681 67.936,-116.987C59.585,-126.287 49.732,-133.676 38.381,-139.153C27.021,-144.624 14.637,-147.363 1.232,-147.363L-123.66,-147.363C-125.869,-147.363 -127.66,-145.572 -127.66,-143.363L-127.66,94.228C-127.66,96.437 -129.451,98.228 -131.66,98.228L-144.411,98.228C-146.62,98.228 -148.411,100.019 -148.411,102.228L-148.411,140.08C-148.411,142.289 -146.62,144.08 -144.411,144.08L-54.515,144.08C-52.305,144.08 -50.515,142.289 -50.515,140.08L-50.515,102.228C-50.515,100.019 -52.305,98.228 -54.515,98.228L-67.014,98.228C-69.223,98.228 -71.014,96.437 -71.014,94.228L-71.014,50.385C-71.014,48.176 -69.223,46.385 -67.014,46.385L-21.081,46.385C-16.909,46.385 -13.037,48.553 -10.855,52.109L17.86,98.92C18.638,100.187 18.722,101.801 17.953,103.072C17.048,104.572 16.525,106.329 16.525,108.209L16.525,140.08C16.525,142.289 18.316,144.08 20.525,144.08L110.422,144.08C112.631,144.08 114.422,142.289 114.422,140.08L114.422,102.228C114.422,100.019 112.631,98.228 110.422,98.228" style="fill:rgb(27,20,24);fill-rule:nonzero;"/>
                </g>
                <g transform="matrix(4.16667,0,0,4.16667,67953.5,8805.52)">
                    <path d="M0,37.212C-7.53,26.455 -18.338,17.739 -32.429,11.068C-46.526,4.399 -63.151,-1.252 -82.302,-5.883C-97.08,-9.692 -109.395,-13.226 -119.246,-16.497C-129.098,-19.768 -136.486,-23.713 -141.412,-28.344C-146.338,-32.975 -148.801,-39.234 -148.801,-47.137C-148.801,-57.476 -144.901,-65.506 -137.102,-71.226C-129.303,-76.948 -117.745,-79.809 -102.416,-79.809C-93.661,-79.809 -85.041,-78.641 -76.556,-76.319C-73.952,-75.604 -71.406,-74.857 -68.918,-74.078C-66.549,-73.336 -65.429,-70.633 -66.565,-68.425L-68.488,-64.694C-69.5,-62.731 -68.729,-60.318 -66.765,-59.307L-33.115,-41.97C-31.151,-40.957 -28.739,-41.729 -27.728,-43.693L-18.716,-61.183C-18.611,-61.387 -18.486,-61.578 -18.348,-61.761C-18.008,-62.21 -17.69,-62.684 -17.412,-63.196L-4.359,-87.162C-3.677,-88.415 -3.244,-89.741 -3.038,-91.081C-2.968,-91.541 -2.842,-91.991 -2.629,-92.405L4.006,-105.281C5.018,-107.245 4.246,-109.657 2.282,-110.669L-31.367,-128.007C-33.33,-129.018 -35.742,-128.247 -36.754,-126.283L-39.178,-121.581C-40.097,-119.798 -42.188,-118.988 -44.083,-119.649C-49.858,-121.663 -55.824,-123.436 -61.983,-124.962C-74.163,-127.97 -87.094,-129.476 -100.774,-129.476C-120.478,-129.476 -138.404,-126.001 -154.548,-119.048C-170.698,-112.096 -183.486,-101.878 -192.928,-88.391C-202.369,-74.901 -207.09,-58.213 -207.09,-38.317C-207.09,-23.598 -204.082,-11.334 -198.06,-1.527C-192.043,8.285 -182.871,16.393 -170.557,22.793C-158.242,29.2 -142.92,34.993 -124.583,40.168C-109.26,44.529 -95.989,48.545 -84.766,52.227C-73.548,55.908 -64.793,60.198 -58.494,65.106C-52.202,70.012 -49.054,76.823 -49.054,85.539C-49.054,95.013 -53.023,102.318 -60.957,107.462C-68.897,112.607 -80.526,115.172 -95.849,115.172C-106.797,115.172 -117.604,113.806 -128.276,111.066C-135.823,109.135 -142.956,106.889 -149.68,104.336C-151.915,103.487 -152.912,100.883 -151.817,98.757L-150.721,96.628C-149.709,94.664 -150.481,92.252 -152.444,91.24L-186.094,73.903C-188.058,72.892 -190.47,73.663 -191.481,75.627L-198.456,89.164C-198.597,89.436 -198.772,89.686 -198.97,89.92C-199.532,90.589 -200.036,91.325 -200.454,92.14L-214.098,118.757C-214.472,119.486 -214.755,120.239 -214.966,121.003C-215.041,121.275 -215.138,121.54 -215.267,121.79L-226.169,142.95C-227.181,144.914 -226.409,147.326 -224.445,148.338L-190.796,165.676C-188.832,166.688 -186.42,165.916 -185.408,163.952L-179.941,153.342C-179.005,151.525 -176.854,150.722 -174.942,151.447C-163.729,155.7 -152.145,159.076 -140.181,161.557C-125.679,164.565 -111.177,166.071 -96.669,166.071C-82.168,166.071 -68.487,164.5 -55.621,161.377C-42.762,158.246 -31.268,153.276 -21.141,146.464C-11.02,139.659 -3.079,130.744 2.668,119.712C8.414,108.688 11.287,95.411 11.287,79.89C11.287,62.193 7.522,47.968 0,37.212" style="fill:rgb(27,20,24);fill-rule:nonzero;"/>
                </g>
                <g transform="matrix(4.16667,0,0,4.16667,66826,8564.98)">
                    <path d="M0,152.054L-37.853,152.054C-40.062,152.054 -41.853,153.844 -41.853,156.054L-41.853,168.08C-41.853,170.289 -43.644,172.08 -45.853,172.08L-137.722,172.08C-139.931,172.08 -141.722,170.289 -141.722,168.08L-141.722,100.141C-141.722,97.932 -139.931,96.141 -137.722,96.141L-68.639,96.141C-66.429,96.141 -64.639,97.932 -64.639,100.141L-64.639,119.534C-64.639,121.743 -62.848,123.534 -60.639,123.534L-22.681,123.534C-20.472,123.534 -18.681,121.743 -18.681,119.534L-18.681,29.237C-18.681,27.027 -20.472,25.237 -22.681,25.237L-60.639,25.237C-62.848,25.237 -64.639,27.027 -64.639,29.237L-64.639,46.166C-64.639,48.376 -66.429,50.166 -68.639,50.166L-137.722,50.166C-139.931,50.166 -141.722,48.376 -141.722,46.166L-141.722,-16.026C-141.722,-18.235 -139.931,-20.026 -137.722,-20.026L-49.555,-20.026C-47.346,-20.026 -45.555,-18.235 -45.555,-16.026L-45.555,-4C-45.555,-1.791 -43.764,-0 -41.555,-0L-3.702,-0C-1.492,-0 0.298,-1.791 0.298,-4L0.298,-31.877C0.299,-31.925 0.306,-31.973 0.306,-32.022L0.306,-57.699C0.306,-57.748 0.299,-57.795 0.298,-57.843L0.298,-65.695C0.298,-67.904 -1.492,-69.695 -3.702,-69.695L-194.368,-69.695C-196.577,-69.695 -198.368,-67.904 -198.368,-65.695L-198.368,217.749C-198.368,219.958 -196.577,221.749 -194.368,221.749L0,221.749C2.21,221.749 4,219.958 4,217.749L4,156.054C4,153.844 2.21,152.054 0,152.054" style="fill:rgb(27,20,24);fill-rule:nonzero;"/>
                </g>
            </g>
        </g>
    </g>
</svg>
